<svg xmlns="http://www.w3.org/2000/svg" viewBox="0 0 732.11 813.44"><defs><style>.cls-1{fill:#0e93d2;}.cls-2{fill:#cc1b6e;}.cls-3{fill:#fcc012;}.cls-4{fill:#07a04e;}.cls-5{fill:#010101;}</style></defs><title>Asset 29</title><g id="Layer_2" data-name="Layer 2"><g id="Layer_1-2" data-name="Layer 1"><path class="cls-1" d="M91.84,557.46V299.24s1-47.56,50.14-79S463.38,35.36,463.38,35.36,420.62,8.9,409.3,6.21s-40-12.52-72.74,0S49.16,161.93,49.16,161.93,4.34,194.66,4.34,226.36V528.59l85.48,36Z"/><path class="cls-2" d="M213.18,629.18V371s1-47.56,50.14-79,321.4-184.87,321.4-184.87S542,80.62,530.64,77.93s-40-12.52-72.74,0S170.5,233.65,170.5,233.65s-44.82,32.73-44.82,64.43V600.31l85.48,36.05Z"/><path class="cls-3" d="M345,699.29,345,440s1-47.56,50.14-79,321.4-184.86,321.4-184.86S673.76,149.66,662.45,147s-40-12.53-72.74,0-287.4,155.72-287.4,155.72-44.82,32.73-44.82,64.43V669.35l85.47,36Z"/><path class="cls-4" d="M427.07,384.9c-11.23,9.19-43,35.27-45.51,70.57v358L485.9,754.1V662.05s184.86-103.8,194.56-111.22,48.34-32.21,49.09-67.24,2.56-277.93,2.56-277.93S438.34,375.7,427.07,384.9Zm222.45,53.17c0,25.57-23.53,34.28-23.53,34.28L485.39,551.1V497.41c0-26.11,28.12-44,31.69-47.56S649.52,372.1,649.52,372.1Z"/><path class="cls-5" d="M345,810.13,17,617.1C2.24,608.34.14,604.69,0,587.53l4.34-91.95L345,699.16Z"/></g></g></svg>