<svg xmlns="http://www.w3.org/2000/svg" viewBox="0 0 720.79 800.87"><defs><style>.cls-1{fill:#fff;}</style></defs><title>Asset 40</title><g id="Layer_2" data-name="Layer 2"><g id="Layer_1-2" data-name="Layer 1"><path class="cls-1" d="M90.42,548.84V294.61s1-46.82,49.36-77.79,316.44-182,316.44-182S414.12,8.76,403,6.12s-39.4-12.34-71.62,0-283,153.31-283,153.31S4.28,191.65,4.28,222.87V520.42l84.15,35.5Z"/><path class="cls-1" d="M209.88,619.45V365.22s1-46.82,49.37-77.79,316.43-182,316.43-182-42.1-26.06-53.24-28.7-39.4-12.34-71.62,0S167.86,230,167.86,230s-44.12,32.22-44.12,63.44V591l84.15,35.5Z"/><path class="cls-1" d="M339.63,688.48l0-255.29s1-46.82,49.37-77.79,316.43-182,316.43-182-42.1-26.06-53.24-28.7-39.4-12.34-71.62,0S297.64,298,297.64,298s-44.13,32.22-44.13,63.44V659l84.15,35.5Z"/><path class="cls-1" d="M420.47,379c-11.06,9.05-42.3,34.72-44.81,69.48V800.87l102.73-58.42V651.82s182-102.2,191.55-109.51,47.6-31.71,48.34-66.19,2.51-273.64,2.51-273.64S431.56,369.9,420.47,379Zm219,52.35c0,25.17-23.16,33.75-23.16,33.75L477.88,542.58V489.72c0-25.7,27.69-43.3,31.21-46.82s130.39-76.55,130.39-76.55Z"/><path class="cls-1" d="M339.63,797.61,16.73,607.56C2.2,598.94.14,595.34,0,578.45l4.28-90.53L339.63,688.35Z"/></g></g></svg>