<svg xmlns="http://www.w3.org/2000/svg" viewBox="0 0 2510.62 410.56"><defs><style>.cls-1{fill:#fff;}.cls-2{fill:#0e93d2;}.cls-3{fill:#cc1b6e;}.cls-4{fill:#fcc012;}.cls-5{fill:#07a04e;}</style></defs><title>Asset 42</title><g id="Layer_2" data-name="Layer 2"><g id="Layer_1-2" data-name="Layer 1"><path class="cls-1" d="M481.19,61.91h63L572.9,285.53l54.1-92L608.4,62.72h53.68l10.14,95.2,52-95.2h54.1L701,193.57l13.94,92L842.54,61.91h63.39L726.74,349.53h-48.6L656.58,228.81,581.35,349.53h-48.6Z"/><path class="cls-1" d="M938.05,61.91h194.41l-10.57,49H985L969.75,180.2h117.91l-10.14,45.37H959.6l-16.48,74.95h140.31l-11,49H874.23Z"/><path class="cls-1" d="M1182.32,61.91h57.9L1187.4,300.52h143.27l-10.57,49H1118.51Z"/><path class="cls-1" d="M1419.41,61.91h57.9l-52.82,238.61h143.27l-10.57,49H1355.6Z"/><path class="cls-1" d="M1656.5,61.91h120.87q22.83,0,39.1,11.34a72.71,72.71,0,0,1,24.72,29.57,90.54,90.54,0,0,1,8.45,38.49,98.05,98.05,0,0,1-8.87,39.9,126.64,126.64,0,0,1-24.3,36.26,120.6,120.6,0,0,1-35.93,25.93,99.87,99.87,0,0,1-43.32,9.72h-65.5l-21.13,96.41h-57.9ZM1744,204.1a35.41,35.41,0,0,0,17.11-4.46,50.46,50.46,0,0,0,14.8-12.35,61.3,61.3,0,0,0,10.35-18.44,67.38,67.38,0,0,0,3.8-23.09q0-10.94-3.59-18.83a26.92,26.92,0,0,0-9.93-12,25.42,25.42,0,0,0-14-4.06h-59.17l-20.7,93.18Z"/><path class="cls-1" d="M1887.68,139.28h52l-10.14,44.94q16.05-21.66,36.13-34.32t39.52-12.64c2.81,0,5,.07,6.55.2a17.59,17.59,0,0,1,3.59.61l-10.56,48.2a112.38,112.38,0,0,0-45.44,9.32q-21.35,9.32-33.59,26.75L1897.4,349.53h-56.63Z"/><path class="cls-1" d="M2047.43,139.28h56.63l-46.91,210.25h-56.63ZM2066,55.83h56.64l-11.84,53.88h-56.63Z"/><path class="cls-1" d="M2154.35,139.28h51.14l-8.88,39.22a107.76,107.76,0,0,1,25.57-23,120.38,120.38,0,0,1,31.7-14.42,125,125,0,0,1,35.29-5q19.42,0,30,6.41a35.59,35.59,0,0,1,15,17.42,65.42,65.42,0,0,1,4.43,24.64,113.27,113.27,0,0,1-1.26,16.82q-1.28,8.41-3,17.23l-29.16,131h-56.64l26.21-117.38a74.68,74.68,0,0,0,2.32-11.18,80.74,80.74,0,0,0,.64-10q0-14-6.55-20.56t-17.54-6.59q-10.15,0-22,5.54a89.34,89.34,0,0,0-22.4,15.23A91.27,91.27,0,0,0,2191.54,227l-27.47,122.57h-56.63Z"/><path class="cls-1" d="M2372,316.66a62.55,62.55,0,0,1,.42-7.22q.42-3.62,1.27-7.63l27-120.8h-27.47l9.3-41.73h27l15.22-68.87h56.63l-15.21,68.87h44.37L2501.33,181h-44l-23.24,102.36a24,24,0,0,0-.64,3.19,24.68,24.68,0,0,0-.21,3.2c0,5.06,1.55,8.67,4.65,10.8a19.66,19.66,0,0,0,11.41,3.2,53.69,53.69,0,0,0,11.2-1.22,66.3,66.3,0,0,0,10.78-3.24q5.07-2,8.87-3.24l1.69,42.94q-8.46,3.64-19,7.09a163.45,163.45,0,0,1-22,5.47,130.35,130.35,0,0,1-22.82,2q-19.87,0-33-8.62T2372,316.66Z"/><path class="cls-2" d="M46.35,281.36V151s.53-24,25.31-39.88,162.22-93.3,162.22-93.3S212.29,4.49,206.58,3.14s-20.19-6.33-36.71,0S24.81,81.73,24.81,81.73,2.19,98.25,2.19,114.25V266.79L45.33,285Z"/><path class="cls-3" d="M107.59,317.56V187.23s.53-24,25.31-39.88,162.22-93.3,162.22-93.3-21.58-13.36-27.3-14.72-20.19-6.32-36.71,0-145.06,78.6-145.06,78.6-22.62,16.52-22.62,32.52V303l43.14,18.2Z"/><path class="cls-4" d="M174.11,352.94V222.07s.53-24,25.31-39.87S361.65,88.89,361.65,88.89s-21.59-13.36-27.3-14.71-20.2-6.32-36.71,0-145.06,78.59-145.06,78.59S130,169.29,130,185.29V337.83L173.1,356Z"/><path class="cls-5" d="M215.55,194.26c-5.67,4.64-21.68,17.81-23,35.62V410.56l52.66-29.95V334.15s93.3-52.39,98.2-56.14,24.4-16.25,24.78-33.93,1.29-140.28,1.29-140.28S221.24,189.62,215.55,194.26ZM327.82,221.1c0,12.91-11.87,17.31-11.87,17.31l-71,39.74v-27.1c0-13.17,14.2-22.2,16-24s66.84-39.25,66.84-39.25Z"/><path class="cls-1" d="M174.11,408.89,8.58,311.46C1.13,307,.07,305.2,0,296.54l2.19-46.41L174.11,352.88Z"/></g></g></svg>