<svg xmlns="http://www.w3.org/2000/svg" viewBox="0 0 1164.85 1101.45"><defs><style>.cls-1{fill:#0e93d2;}.cls-2{fill:#cc1b6e;}.cls-3{fill:#fcc012;}.cls-4{fill:#07a04e;}.cls-5{fill:#fff;}</style></defs><title>Asset 33</title><g id="Layer_2" data-name="Layer 2"><g id="Layer_1-2" data-name="Layer 1"><path class="cls-1" d="M298.27,557.46V299.24s1-47.56,50.13-79S669.81,35.36,669.81,35.36,627,8.9,615.73,6.21s-40-12.52-72.74,0-287.4,155.72-287.4,155.72-44.82,32.73-44.82,64.43V528.59l85.47,36Z"/><path class="cls-2" d="M419.6,629.18V371s1-47.56,50.14-79S791.15,107.08,791.15,107.08s-42.77-26.46-54.08-29.15-40-12.52-72.75,0S376.93,233.65,376.93,233.65s-44.83,32.73-44.83,64.43V600.31l85.48,36.05Z"/><path class="cls-3" d="M551.39,699.29l0-259.3s1.05-47.56,50.14-79S923,176.12,923,176.12,880.19,149.66,868.88,147s-40-12.53-72.75,0-287.4,155.72-287.4,155.72-44.82,32.73-44.82,64.43V669.35l85.48,36Z"/><path class="cls-4" d="M633.5,384.9c-11.24,9.19-43,35.27-45.52,70.57v358L692.32,754.1V662.05s184.86-103.8,194.57-111.22,48.34-32.21,49.09-67.24,2.55-277.93,2.55-277.93S644.76,375.7,633.5,384.9Zm222.44,53.17c0,25.57-23.52,34.28-23.52,34.28L691.81,551.1V497.41c0-26.11,28.12-44,31.7-47.56S855.94,372.1,855.94,372.1Z"/><path class="cls-5" d="M551.39,810.13l-328-193c-14.76-8.76-16.86-12.41-17-29.57l4.34-91.95L551.39,699.16Z"/><path class="cls-5" d="M0,926.8H36.14l16.5,133.9,31.05-55.06L73,927.28h30.8l5.83,57,29.83-57h31.05l-44.39,78.36,8,55.06L207.4,926.8h36.39L140.94,1099H113l-12.37-72.29L57.49,1099H29.59Z"/><path class="cls-5" d="M262.23,926.8H373.81l-6.06,29.35h-78.6l-8.73,41.48H348.1l-5.82,27.17H274.6l-9.46,44.88h80.53l-6.3,29.35H225.6Z"/><path class="cls-5" d="M402.44,926.8h33.23l-30.32,142.88h82.23L481.52,1099H365.81Z"/><path class="cls-5" d="M538.52,926.8h33.23l-30.32,142.88h82.23L617.6,1099H501.89Z"/><path class="cls-5" d="M674.6,926.8H744q13.1,0,22.44,6.79a43.19,43.19,0,0,1,14.19,17.71,56.19,56.19,0,0,1,4.85,23,60.92,60.92,0,0,1-5.09,23.9,76.3,76.3,0,0,1-14,21.71,69.34,69.34,0,0,1-20.62,15.52,55.37,55.37,0,0,1-24.86,5.83h-37.6L671.21,1099H638Zm50.22,85.14a19.7,19.7,0,0,0,9.82-2.66,29.21,29.21,0,0,0,8.49-7.4,36.86,36.86,0,0,0,5.94-11A41.87,41.87,0,0,0,751.26,977a28.23,28.23,0,0,0-2.06-11.28,16,16,0,0,0-5.7-7.15,14.14,14.14,0,0,0-8-2.43h-34l-11.89,55.79Z"/><path class="cls-5" d="M807.29,973.13h29.84L831.31,1000a78.62,78.62,0,0,1,20.74-20.55q11.52-7.57,22.68-7.57c1.61,0,2.87,0,3.76.12a9.6,9.6,0,0,1,2.06.36l-6.06,28.87a62.15,62.15,0,0,0-26.08,5.58,45.22,45.22,0,0,0-19.28,16L812.87,1099h-32.5Z"/><path class="cls-5" d="M899,973.13h32.5L904.56,1099h-32.5Zm10.67-50h32.5l-6.79,32.26h-32.5Z"/><path class="cls-5" d="M960.36,973.13h29.35l-5.1,23.49a63,63,0,0,1,14.68-13.8,68,68,0,0,1,18.19-8.63,69,69,0,0,1,20.26-3q11.16,0,17.22,3.84a21,21,0,0,1,8.61,10.43,40.65,40.65,0,0,1,2.55,14.75,69.76,69.76,0,0,1-.73,10.08q-.72,5-1.7,10.31L1047,1099h-32.51l15-70.29a45.63,45.63,0,0,0,1.33-6.69,49.83,49.83,0,0,0,.37-6q0-8.37-3.76-12.31a13.28,13.28,0,0,0-10.07-4,29,29,0,0,0-12.61,3.32,50.87,50.87,0,0,0-12.86,9.12,54.47,54.47,0,0,0-10.19,13.38L965.94,1099H933.43Z"/><path class="cls-5" d="M1085.28,1079.35a37,37,0,0,1,.25-4.33c.16-1.44.4-3,.72-4.57l15.53-72.33H1086l5.34-25h15.52l8.74-41.24h32.5l-8.73,41.24h25.47l-5.34,25h-25.23l-13.34,61.29a16.42,16.42,0,0,0-.36,1.91,13.75,13.75,0,0,0-.12,1.92c0,3,.88,5.19,2.67,6.46a10.9,10.9,0,0,0,6.55,1.92,29.27,29.27,0,0,0,6.42-.73,37,37,0,0,0,6.19-1.94q2.91-1.21,5.09-1.94l1,25.71q-4.85,2.19-10.91,4.25a91.14,91.14,0,0,1-12.62,3.27,71.6,71.6,0,0,1-13.1,1.21q-11.4,0-18.92-5.16T1085.28,1079.35Z"/></g></g></svg>